<svg id="Layer_1" data-name="Layer 1" xmlns="http://www.w3.org/2000/svg" viewBox="0 0 1366 768"><defs><style>.cls-1{fill:#a3d5e8;}.cls-2{fill:#fcfcfc;}</style></defs><title>2nd last layer</title><path class="cls-1" d="M0,608c10.4.82,26.92,2.36,47,5.3,93.08,13.63,109.12,34.86,150,30.07,45.47-5.34,38.23-33.09,108-60.13,25.36-9.82,72.64-28.15,128-18.56,53.07,9.18,98.29,41.38,107,47.74,26.24,19.17,30.38,29.84,49,32.71,29.43,4.54,44.19-18.26,90-38,0,0,51.28-22.12,116-22.11,44.36,0,59.45,11.48,127,30.06,75.2,20.69,117.71,32.39,170,31.83,88.35-.94,112.9-35.88,187-23.87,39.07,6.33,68.68,22,87,33.6V768L-1,767.12Z"/><circle class="cls-2" cx="202.5" cy="197.5" r="12.5"/><ellipse class="cls-2" cx="376" cy="150.5" rx="16" ry="16.5"/><circle class="cls-2" cx="545.5" cy="229.5" r="11.5"/><circle class="cls-2" cx="269.5" cy="63.5" r="5.5"/><circle class="cls-2" cx="89" cy="127" r="7"/><circle class="cls-2" cx="106.5" cy="227.5" r="10.5"/><circle class="cls-2" cx="264.5" cy="251.5" r="10.5"/><circle class="cls-2" cx="589" cy="117" r="6"/><circle class="cls-2" cx="725.5" cy="279.5" r="11.5"/><circle class="cls-2" cx="712" cy="177" r="5"/><circle class="cls-2" cx="910.5" cy="163.5" r="13.5"/><circle class="cls-2" cx="1046.5" cy="115.5" r="4.5"/><ellipse class="cls-2" cx="1118.5" cy="216" rx="11.5" ry="12"/><ellipse class="cls-2" cx="1008.5" cy="184" rx="6.5" ry="7"/><circle class="cls-2" cx="789" cy="110" r="5"/><circle class="cls-2" cx="1185.5" cy="125.5" r="8.5"/><ellipse class="cls-2" cx="1205" cy="283.5" rx="11" ry="11.5"/><ellipse class="cls-2" cx="1303.5" cy="311" rx="15.5" ry="16"/><circle class="cls-2" cx="1285.5" cy="125.5" r="8.5"/><ellipse class="cls-2" cx="622" cy="324.5" rx="6" ry="6.5"/><circle class="cls-2" cx="248" cy="337" r="6"/><circle class="cls-2" cx="488" cy="303" r="8"/><ellipse class="cls-2" cx="735.5" cy="373" rx="6.5" ry="7"/><circle class="cls-2" cx="1138" cy="358" r="8"/><circle class="cls-2" cx="1256" cy="371" r="8"/></svg>