<svg id="Layer_1" data-name="Layer 1" xmlns="http://www.w3.org/2000/svg" viewBox="0 0 1366 768"><defs><style>.cls-1{fill:#a3d5e8;}.cls-2{fill:#e6f9ff;}.cls-3{fill:#fcfcfc;}</style></defs><title>3rd last layer2</title><path class="cls-1" d="M827,570c-7-11.79-19-36.26-10.12-61.82.2-.56,1.06-2.95,2.12-5.18,13.56-28.49,50.42-43.83,86-32,1.31-3.81,15.36-42.49,54-53,35.24-9.59,63.61,11,70,16,32.51,25.46,43.56,76.14,26,126,2.48-1.87,30.47-22.24,63-11,21.2,7.33,31.9,23.79,35,29l212,189L-1,768,0,639c123.58,24.68,303.81,44.87,516,13A1485.13,1485.13,0,0,0,827,570Z"/><path class="cls-2" d="M0,609a208.15,208.15,0,0,1,43-25,212.67,212.67,0,0,1,81-17c29.31-.28,43.29,5.87,93,19,18.32,4.84,66.6,17.6,99,23,101.06,16.85,194.77-13.28,225-23,46.45-14.94,58.68-26,98-29,34.66-2.65,52.39,3.86,105,9a899.48,899.48,0,0,0,107,4c-3.51-3.69-12.51-14.15-13-29-.72-21.7,17.13-40.42,37-46,18.64-5.23,39.14,1.06,53,16-1.57-6.85-3.14-18.79,2-31,10.42-24.79,44-40.09,73-30,25,8.68,41.72,34.48,40,63a74.53,74.53,0,0,1-10,37,73.29,73.29,0,0,1-16,19c25.07,12.07,62.09,25,105,20,40.34-4.65,43.58-15.09,80-22,60.71-11.52,120,43.89,133,56a209.07,209.07,0,0,1,30,35l1,110L-1,767Z"/><circle class="cls-3" cx="202.5" cy="197.5" r="12.5"/><ellipse class="cls-3" cx="376" cy="150.5" rx="16" ry="16.5"/><circle class="cls-3" cx="545.5" cy="229.5" r="11.5"/><circle class="cls-3" cx="269.5" cy="63.5" r="5.5"/><circle class="cls-3" cx="89" cy="127" r="7"/><circle class="cls-3" cx="106.5" cy="227.5" r="10.5"/><circle class="cls-3" cx="264.5" cy="251.5" r="10.5"/><circle class="cls-3" cx="589" cy="117" r="6"/><circle class="cls-3" cx="725.5" cy="279.5" r="11.5"/><circle class="cls-3" cx="712" cy="177" r="5"/><circle class="cls-3" cx="910.5" cy="163.5" r="13.5"/><circle class="cls-3" cx="1046.5" cy="115.5" r="4.5"/><ellipse class="cls-3" cx="1118.5" cy="216" rx="11.5" ry="12"/><ellipse class="cls-3" cx="1008.5" cy="184" rx="6.5" ry="7"/><circle class="cls-3" cx="789" cy="110" r="5"/><circle class="cls-3" cx="1185.5" cy="125.5" r="8.5"/><ellipse class="cls-3" cx="1205" cy="283.5" rx="11" ry="11.5"/><ellipse class="cls-3" cx="1303.5" cy="311" rx="15.5" ry="16"/><circle class="cls-3" cx="1285.5" cy="125.5" r="8.5"/><ellipse class="cls-3" cx="622" cy="324.5" rx="6" ry="6.5"/><circle class="cls-3" cx="248" cy="337" r="6"/><circle class="cls-3" cx="488" cy="303" r="8"/><ellipse class="cls-3" cx="735.5" cy="373" rx="6.5" ry="7"/><circle class="cls-3" cx="1138" cy="358" r="8"/><circle class="cls-3" cx="1256" cy="371" r="8"/></svg>