<svg id="Layer_1" data-name="Layer 1" xmlns="http://www.w3.org/2000/svg" viewBox="0 0 1366 768"><defs><style>.cls-1{fill:#d1d2d4;}.cls-2{fill:#2f3034;}.cls-3{fill:#ef3856;}.cls-10,.cls-4,.cls-5{fill:none;stroke-miterlimit:10;}.cls-4{stroke:#8e1b34;}.cls-5{stroke:#d62b48;}.cls-6{fill:#fcdfd7;}.cls-7{fill:#342d30;}.cls-8{fill:#f25926;}.cls-9{fill:#36303e;}.cls-10{stroke:#36303e;}.cls-11{fill:#fffffc;}.cls-12{fill:#f1e5d4;}</style></defs><title>about us human</title><path class="cls-1" d="M1102.5,673.5c-19,.23-13.14,0-78,0-59,0-56.89.23-73,0-27.89-.39-44-1.74-80-2-11.86-.09-21.61,0-28,0l-51.63,1h-.37c-16.54,4.49-20.17,7.26-20,9,.14,1.45,3.18,4.55,75,7,25.86.88,46.12,1,67,1,44.77.09,78.1,0,84,0,94.61-.18,109.35,3.92,186,3,20.33-.25,51.12-.92,89-3,9.28-1.48,21-3.89,21-7,0-3.87-18-7-24-8-19.65-3.37-33.29-2.32-61-2-12.55.15-2.08-.16-30,0C1142.5,672.71,1127.32,673.2,1102.5,673.5Z"/><path class="cls-2" d="M1164.5,457.5c.4,7.78,1,19.21,2,33,2,28.22,4,57,9,91,2.5,17,6.49,40.31,13,68-.19,6,4.3,10.75,9,11,5.3.28,10.79-5.13,10-12q-.18-25.71,0-52,.23-33,1-65c4.42,25.75,10.27,53.2,18,82q6.16,22.95,13,44l16-8c-1.44-31.36-2.38-58.12-3-79-1.32-44.31-1.28-63.84-1-80,.24-13.79.66-25.2,1-33Z"/><path class="cls-3" d="M1231,244c-6.76-.82-23.83-1.9-37,9a38.08,38.08,0,0,0-5,5,124.81,124.81,0,0,0-2.5,21.5c-.19,6.72-.36,12.46,1,20,1.08,6,2.57,10.1,3,18a74.78,74.78,0,0,1,0,8h-8a159.34,159.34,0,0,0-22,22,164.21,164.21,0,0,0-32,64,17.86,17.86,0,0,0-2,11c.93,5.7,4.77,9.17,8,12,9,7.92,19.74,10.24,26,11v-22l-9-8a31.4,31.4,0,0,1,3-5,32.33,32.33,0,0,1,7-7q-.49,10-1,20a167.11,167.11,0,0,0,2,39,226.07,226.07,0,0,0,92,2q.49-7.5,1-15a25.84,25.84,0,0,0,11,4c2.61.31,7.94.94,13-2,7.7-4.47,8.86-13.74,9-15a141.46,141.46,0,0,0,1-26,152.47,152.47,0,0,0-8-40,160,160,0,0,0-15-32,54.34,54.34,0,0,0-18-11,53.51,53.51,0,0,0-13-3,4.33,4.33,0,0,1-2-2c-1.12-2.54,1.16-5.77,2-7,.47-.69,3-6.13,8-17,3-6.38,3.78-11.5,5-19,1.33-8.2,2.29-14.52,0-22-.87-2.85-1.93-6.15-5-9C1238.9,244.23,1233,244,1231,244Z"/><path class="cls-3" d="M1210.5,648.5l-25,1q3.49,12,7,24a60.63,60.63,0,0,0-27,12h43a91.31,91.31,0,0,0,2-37Z"/><path class="cls-3" d="M1233,648l25,1q.26,13.25.5,26.5A51.5,51.5,0,0,1,1274,679c4.07,1.61,9.2,3.65,9,5-.24,1.56-7.63,2.7-40.5.5A101.81,101.81,0,0,1,1233,648Z"/><path class="cls-4" d="M1174,348a165.45,165.45,0,0,0-8,26c-2.09,9.53-2.73,18.35-4,36-1.81,25.14-1.16,36.59,0,46,.36,2.95.74,5.38,1,7a221.3,221.3,0,0,0,91.5,1.5"/><path class="cls-4" d="M1202.5,303.5c-.1,5.9-.35,14.95-1,26-.76,12.85-1.57,19.78-3,35-2.24,23.84-3.36,35.75-4,49-.85,17.55-1,34.12-1,41,0,5.31,0,9.77,0,13"/><path class="cls-5" d="M1258.5,357.5c-.78,4.47-1.46,9.14-2,14a232.61,232.61,0,0,0-1,40"/><path class="cls-4" d="M1265.5,414.5q-15.12-3.62-31-8-12.32-3.4-24-7l-6,6c.69.68,1.74,1.72,3,3,6.25,6.35,10.52,11.31,12,13a202.34,202.34,0,0,0,17,17"/><path class="cls-4" d="M1150.5,414.5a15.64,15.64,0,0,0-15-4"/><path class="cls-6" d="M1197,265a18.07,18.07,0,0,0-3,6,190.2,190.2,0,0,1,0,20,20.72,20.72,0,0,0,1,9,19.27,19.27,0,0,0,2,4l9-1q8.55-1,17-2a33.59,33.59,0,0,0,6-15c1.64-12.3-4.31-21.55-6-24-1.17-1.25-4.75-4.73-10-5-3.2-.16-5.64.94-8,2A19.49,19.49,0,0,0,1197,265Z"/><path class="cls-7" d="M1195.5,266.5a16.11,16.11,0,0,1,6.5-7.5,17.26,17.26,0,0,1,6-2,18.78,18.78,0,0,1,7,0,16.74,16.74,0,0,1,7,3c3.63,2.76,4.85,6.49,6,10a32.43,32.43,0,0,1,1.5,12.5,39,39,0,0,0-6-10c-3.33-4-9.66-11.64-18-11C1203.86,261.62,1199.84,262.24,1195.5,266.5Z"/><path class="cls-8" d="M1196,267c1.42.76,3.48,1.82,6,3,.7.33,4.76,2.22,7,3,2.51.87,7.39,2,15,0a34.71,34.71,0,0,0-8-8c-2.73-1.95-5.26-3.7-9-4a11.14,11.14,0,0,0-8,2A10,10,0,0,0,1196,267Z"/><path class="cls-9" d="M1228,294a18,18,0,0,1-3,5,18.83,18.83,0,0,1-2,2c-1.41,1-1.87,1.13-2,1-.29-.28,1-1.82,3-5,.45-.71,1.78-2.79,3-5,2-3.7,2.8-6.07,3-6S1229.9,287.49,1228,294Z"/><rect class="cls-9" x="1210" y="276" width="2" height="2" rx="1"/><rect class="cls-9" x="1196" y="276" width="2" height="2" rx="1"/><path class="cls-10" d="M1201.5,278.5a18.68,18.68,0,0,0-2,5c-.12.51-1.27,5.41,0,6,.24.11,1.1.31,3.5-2.5"/><path class="cls-10" d="M1198.5,293.5a16.93,16.93,0,0,0,13-3"/><path class="cls-11" d="M1181,385h24v3a6.5,6.5,0,0,1,4,0,7.21,7.21,0,0,1,4,4c2,4,.37,8.1,0,9l-5.5,6.5a15.89,15.89,0,0,0,4-8c.33-2,.83-5-1-7a7.42,7.42,0,0,0-4-2,6.94,6.94,0,0,0-2,0v6c-.33,3.67-.67,7.33-1,11a5.7,5.7,0,0,1-2,3v4h-16a14.76,14.76,0,0,0,0-3,16.64,16.64,0,0,0-2-6c-1-2.12-1.35-5.08-2-11A85.88,85.88,0,0,1,1181,385Z"/><path class="cls-11" d="M1198,371c.62-.6-.45-3.83-3-5a4.5,4.5,0,0,0-4,0c-1.91,1.11-2,3.51-2,4a6.11,6.11,0,0,0,3,5c1,.62,1.52.44,2,1,1,1.23.13,3.78-1,6a7.89,7.89,0,0,0,3-4c.3-.94.85-2.7,0-4-.72-1.1-2-1.27-2-2,0-.57.86-.94,1-1C1196.4,370.37,1197.56,371.43,1198,371Z"/><path class="cls-12" d="M1211,400a27.88,27.88,0,0,1-3-1,28.5,28.5,0,0,1-4-2c-2.69-1.57-8.42-3.12-13-1-2.79,1.29-5.57,4.13-5,6,.32,1.06,1.62,1.51,3,2,3.85,1.36,5.46-.26,9,1,2.16.77,1.88,1.48,4,2s3.38.06,5,1a5.71,5.71,0,0,1,2,2,28.67,28.67,0,0,1,1-7A29.26,29.26,0,0,1,1211,400Z"/></svg>