<svg id="Layer_1" data-name="Layer 1" xmlns="http://www.w3.org/2000/svg" viewBox="0 0 1366 768"><defs><style>.cls-1{fill:#a3d5e8;}.cls-2{fill:#419eca;}</style></defs><title>about us</title><path class="cls-1" d="M0,200a421.16,421.16,0,0,1,83-54s61.25-30.24,132-40c147.35-20.34,220.82,80.2,415,92,114.39,6.95,137.93-22.58,258-2,81.16,13.91,139.36,42.78,173,60,110.74,56.67,182.71,133.23,224,186a632.14,632.14,0,0,1,65,129c6.34,17.27,11.61,34,16,50V0H0Z"/><path class="cls-2" d="M1366,0V128a759.54,759.54,0,0,0-173.87-70C946.56-6.56,865.87,109.11,595.56,84.13c-194.11-17.93-254.3-87-412.69-45.95C101.9,59.16,40.19,97.26,0,127L1,0Z"/></svg>