<svg id="Layer_1" data-name="Layer 1" xmlns="http://www.w3.org/2000/svg" viewBox="0 0 1366 768"><defs><style>.cls-1{fill:#a3d5e8;}.cls-2{fill:#e6f9ff;}.cls-3{fill:#419eca;}</style></defs><title>footer sec</title><path class="cls-1" d="M828,161c-19-40.21-11.76-59.11-8-67,13.56-28.49,50.42-43.83,86-32,1.31-3.81,15.36-42.49,54-53,35.24-9.59,63.61,11,70,16,32.51,25.46,43.56,76.14,26,126,2.48-1.87,30.47-22.24,63-11,21.2,7.33,31.9,23.79,35,29,1,26.86,1.81,126.1-55,160C1016.65,378.13,872.17,254.73,828,161Z"/><path class="cls-2" d="M1,200a208.15,208.15,0,0,1,43-25,212.67,212.67,0,0,1,81-17c29.31-.28,43.29,5.87,93,19,18.32,4.84,66.6,17.6,99,23,101.06,16.85,194.77-13.28,225-23,46.45-14.94,58.68-26,98-29,34.66-2.65,52.39,3.86,105,9a899.48,899.48,0,0,0,107,4c-3.51-3.69-12.51-14.15-13-29-.72-21.7,17.13-40.42,37-46,18.64-5.23,39.14,1.06,53,16-1.57-6.85-3.14-18.79,2-31,10.42-24.79,44-40.09,73-30,25,8.68,41.72,34.48,40,63a74.53,74.53,0,0,1-10,37,73.29,73.29,0,0,1-16,19c25.07,12.07,62.09,24.95,105,20,40.34-4.65,43.58-15.09,80-22,60.71-11.52,120,43.89,133,56a209.07,209.07,0,0,1,30,35l1,110L0,358Z"/><path class="cls-1" d="M1,199c10.4.82,26.92,2.36,47,5.3,93.08,13.63,109.12,34.86,150,30.07,45.47-5.34,38.23-33.09,108-60.13,25.36-9.82,72.64-28.15,128-18.56,53.07,9.18,98.29,41.38,107,47.74,26.24,19.17,30.38,29.84,49,32.71,29.43,4.54,44.19-18.26,90-38,0,0,51.28-22.12,116-22.11,44.36,0,59.45,11.48,127,30.06,75.2,20.69,117.71,32.39,170,31.83,88.35-.94,112.9-35.88,187-23.87,39.07,6.33,68.68,21.95,87,33.6V359L0,358.12Z"/><path class="cls-3" d="M3,266c30.93,2.61,77.15,7.29,133,16,91.36,14.25,102.63,22.8,153,27,63.07,5.26,108.61-2.87,199-19,114.21-20.38,124.31-35.82,188-33,58.68,2.6,67.94,16.5,125,16,69.33-.6,84.17-21.37,152-34,113.4-21.11,214.16,10.47,302,38a897.08,897.08,0,0,1,113,44q-1,223.5-2,447H0Q-1.72,544.46,2,321,2.47,293.51,3,266Z"/></svg>