<svg id="Layer_1" data-name="Layer 1" xmlns="http://www.w3.org/2000/svg" viewBox="0 0 1366 768"><defs><style>.cls-1{fill:#a3d5e8;}.cls-2{fill:#e6f9ff;}.cls-3{fill:#e4fcfb;}.cls-4{fill:#3d5357;}.cls-5{fill:#419eca;}.cls-6{fill:#fcfcfc;}</style></defs><title>landing PAge</title><path class="cls-1" d="M827,570c-7-11.79-19-36.26-10.12-61.82.2-.56,1.06-2.95,2.12-5.18,13.56-28.49,50.42-43.83,86-32,1.31-3.81,15.36-42.49,54-53,35.24-9.59,63.61,11,70,16,32.51,25.46,43.56,76.14,26,126,2.48-1.87,30.47-22.24,63-11,21.2,7.33,31.9,23.79,35,29l212,189L-1,768,0,639c123.58,24.68,303.81,44.87,516,13A1485.13,1485.13,0,0,0,827,570Z"/><path class="cls-2" d="M0,609a208.15,208.15,0,0,1,43-25,212.67,212.67,0,0,1,81-17c29.31-.28,43.29,5.87,93,19,18.32,4.84,66.6,17.6,99,23,101.06,16.85,194.77-13.28,225-23,46.45-14.94,58.68-26,98-29,34.66-2.65,52.39,3.86,105,9a899.48,899.48,0,0,0,107,4c-3.51-3.69-12.51-14.15-13-29-.72-21.7,17.13-40.42,37-46,18.64-5.23,39.14,1.06,53,16-1.57-6.85-3.14-18.79,2-31,10.42-24.79,44-40.09,73-30,25,8.68,41.72,34.48,40,63a74.53,74.53,0,0,1-10,37,73.29,73.29,0,0,1-16,19c25.07,12.07,62.09,25,105,20,40.34-4.65,43.58-15.09,80-22,60.71-11.52,120,43.89,133,56a209.07,209.07,0,0,1,30,35l1,110L-1,767Z"/><path class="cls-3" d="M291,247.08c-8.77-.37-35-.23-59.91,17.85-44,31.89-42.83,89.66-42.66,94.52a113.06,113.06,0,0,0-33.51,21c-7.36,6.68-34.27,31.87-37.57,73.51a108.36,108.36,0,0,0,10.15,54.61c3.3,6.94,15.49,31.78,42.66,46.21,40.62,21.59,84.12,3.63,100.53-3.15a145.21,145.21,0,0,0,15.23-7.35c4.82,2,12.06,5,20.82,8.93,10.56,4.7,15.58,7.2,18.28,8.4,22.87,10.16,50.45,3.25,54.84,2.1a100.45,100.45,0,0,0,45.7-27.31c23.3-24.13,28.21-52.82,29.45-63,1-7.93,5.81-47.8-21.33-80.87A96.85,96.85,0,0,0,384.92,361c1.11-9.62,3.23-38.76-14.22-67.22C343.92,250.15,295.08,247.25,291,247.08Z"/><path class="cls-4" d="M165.78,418.28c-1.87.64-1,19,10,34a54.66,54.66,0,0,0,25,18.57,60,60,0,0,0,34.52,2.58c1.65,3.47,3.48,7.09,5.51,10.82s4,7.11,6,10.32a58.69,58.69,0,0,1-22,2.06c-17.3-1.75-28.55-11.15-29-10.31s11.31,12.5,29,17.53a68.32,68.32,0,0,0,32,1l6,7.22,10.51,7.73q-.76,32.75-1.51,65.49c1.8,10.65,10.34,17.91,19,17.53,9.49-.41,14.72-9.76,15-10.31V537.91a105.76,105.76,0,0,0,23-7.22,107.76,107.76,0,0,0,21-12.37,60.65,60.65,0,0,0,24,5.15,62.77,62.77,0,0,0,34-10.31c20.88-13.77,26.75-35.9,28-41.25-1.4,3.55-14.9,36.24-47,43.31a59.75,59.75,0,0,1-32-2.06,73,73,0,0,0,16-19.59c12.78-22.94,9.32-46.49,8-54.66a92.64,92.64,0,0,0-5-18.56c1.61,5.31,10.83,37.66-7,68.06-13.69,23.33-35.71,32.53-42,35.06a84.76,84.76,0,0,1-19,5.16V502.85a96.53,96.53,0,0,0,13-29.91,98.14,98.14,0,0,0,2-36.09,92.91,92.91,0,0,0,15-11.35c3.77-3.5,15.7-14.81,22-30.94,10.07-25.71,1.16-51.65,0-51.56s6.48,27.34-6,53.63c-7.59,16-20.13,26.31-31,33q-4.52-13.41-9-26.82a105.07,105.07,0,0,1,2,34c-.88,8.33-3.19,27.72-17,46.4a84.08,84.08,0,0,1-22,20.63,69.25,69.25,0,0,1-27-19.6c-12.52-14.89-15.27-30.93-16.18-36.68a79,79,0,0,1-.84-16.94,58.66,58.66,0,0,0-2.5,12.89,59.38,59.38,0,0,0,2.5,22.17c-10.44,1.77-26.36,2.67-40-6.19C171.94,446,168.14,417.48,165.78,418.28Z"/><path class="cls-1" d="M0,608c10.4.82,26.92,2.36,47,5.3,93.08,13.63,109.12,34.86,150,30.07,45.47-5.34,38.23-33.09,108-60.13,25.36-9.82,72.64-28.15,128-18.56,53.07,9.18,98.29,41.38,107,47.74,26.24,19.17,30.38,29.84,49,32.71,29.43,4.54,44.19-18.26,90-38,0,0,51.28-22.12,116-22.11,44.36,0,59.45,11.48,127,30.06,75.2,20.69,117.71,32.39,170,31.83,88.35-.94,112.9-35.88,187-23.87,39.07,6.33,68.68,22,87,33.6V768L-1,767.12Z"/><path class="cls-5" d="M0,712c30.93,2.61,77.15,7.29,133,16,91.36,14.25,102.63,22.8,153,27,63.07,5.26,108.61-2.87,199-19,114.21-20.38,124.31-35.82,188-33,58.68,2.6,67.94,16.5,125,16,69.33-.6,84.17-21.37,152-34,113.4-21.11,214.16,10.47,302,38a897.08,897.08,0,0,1,113,44H-1Q-.51,739.5,0,712Z"/><circle class="cls-6" cx="202.5" cy="197.5" r="12.5"/><ellipse class="cls-6" cx="376" cy="150.5" rx="16" ry="16.5"/><circle class="cls-6" cx="545.5" cy="229.5" r="11.5"/><circle class="cls-6" cx="269.5" cy="63.5" r="5.5"/><circle class="cls-6" cx="89" cy="127" r="7"/><circle class="cls-6" cx="106.5" cy="227.5" r="10.5"/><circle class="cls-6" cx="264.5" cy="251.5" r="10.5"/><circle class="cls-6" cx="589" cy="117" r="6"/><circle class="cls-6" cx="725.5" cy="279.5" r="11.5"/><circle class="cls-6" cx="712" cy="177" r="5"/><circle class="cls-6" cx="910.5" cy="163.5" r="13.5"/><circle class="cls-6" cx="1046.5" cy="115.5" r="4.5"/><ellipse class="cls-6" cx="1118.5" cy="216" rx="11.5" ry="12"/><ellipse class="cls-6" cx="1008.5" cy="184" rx="6.5" ry="7"/><circle class="cls-6" cx="789" cy="110" r="5"/><circle class="cls-6" cx="1185.5" cy="125.5" r="8.5"/><ellipse class="cls-6" cx="1205" cy="283.5" rx="11" ry="11.5"/><ellipse class="cls-6" cx="1303.5" cy="311" rx="15.5" ry="16"/><circle class="cls-6" cx="1285.5" cy="125.5" r="8.5"/><ellipse class="cls-6" cx="622" cy="324.5" rx="6" ry="6.5"/><circle class="cls-6" cx="248" cy="337" r="6"/><circle class="cls-6" cx="488" cy="303" r="8"/><ellipse class="cls-6" cx="735.5" cy="373" rx="6.5" ry="7"/><circle class="cls-6" cx="1138" cy="358" r="8"/><circle class="cls-6" cx="1256" cy="371" r="8"/></svg>