<svg id="Layer_1" data-name="Layer 1" xmlns="http://www.w3.org/2000/svg" viewBox="0 0 1366 768"><defs><style>.cls-1{fill:#419eca;}.cls-2{fill:#fcfcfc;}</style></defs><title>last layer</title><path class="cls-1" d="M0,712c30.93,2.61,77.15,7.29,133,16,91.36,14.25,102.63,22.8,153,27,63.07,5.26,108.61-2.87,199-19,114.21-20.38,124.31-35.82,188-33,58.68,2.6,67.94,16.5,125,16,69.33-.6,84.17-21.37,152-34,113.4-21.11,214.16,10.47,302,38a897.08,897.08,0,0,1,113,44H-1Q-.51,739.5,0,712Z"/><circle class="cls-2" cx="202.5" cy="197.5" r="12.5"/><ellipse class="cls-2" cx="376" cy="150.5" rx="16" ry="16.5"/><circle class="cls-2" cx="545.5" cy="229.5" r="11.5"/><circle class="cls-2" cx="269.5" cy="63.5" r="5.5"/><circle class="cls-2" cx="89" cy="127" r="7"/><circle class="cls-2" cx="106.5" cy="227.5" r="10.5"/><circle class="cls-2" cx="264.5" cy="251.5" r="10.5"/><circle class="cls-2" cx="589" cy="117" r="6"/><circle class="cls-2" cx="725.5" cy="279.5" r="11.5"/><circle class="cls-2" cx="712" cy="177" r="5"/><circle class="cls-2" cx="910.5" cy="163.5" r="13.5"/><circle class="cls-2" cx="1046.5" cy="115.5" r="4.5"/><ellipse class="cls-2" cx="1118.5" cy="216" rx="11.5" ry="12"/><ellipse class="cls-2" cx="1008.5" cy="184" rx="6.5" ry="7"/><circle class="cls-2" cx="789" cy="110" r="5"/><circle class="cls-2" cx="1185.5" cy="125.5" r="8.5"/><ellipse class="cls-2" cx="1205" cy="283.5" rx="11" ry="11.5"/><ellipse class="cls-2" cx="1303.5" cy="311" rx="15.5" ry="16"/><circle class="cls-2" cx="1285.5" cy="125.5" r="8.5"/><ellipse class="cls-2" cx="622" cy="324.5" rx="6" ry="6.5"/><circle class="cls-2" cx="248" cy="337" r="6"/><circle class="cls-2" cx="488" cy="303" r="8"/><ellipse class="cls-2" cx="735.5" cy="373" rx="6.5" ry="7"/><circle class="cls-2" cx="1138" cy="358" r="8"/><circle class="cls-2" cx="1256" cy="371" r="8"/></svg>