<svg id="Layer_1" data-name="Layer 1" xmlns="http://www.w3.org/2000/svg" xmlns:xlink="http://www.w3.org/1999/xlink" viewBox="0 0 1366 768"><defs><style>.cls-1{fill:url(#linear-gradient);}.cls-2{fill:#fcfcfc;}</style><linearGradient id="linear-gradient" x1="682.5" y1="767.5" x2="682.5" y2="-0.5" gradientUnits="userSpaceOnUse"><stop offset="0" stop-color="#cce0f4"/><stop offset="0.06" stop-color="#c3dcf2"/><stop offset="0.17" stop-color="#a9d2ee"/><stop offset="0.31" stop-color="#80c2e7"/><stop offset="0.46" stop-color="#47acde"/><stop offset="0.57" stop-color="#1e9cd7"/><stop offset="0.87" stop-color="#0075be"/><stop offset="0.99" stop-color="#10578b"/></linearGradient></defs><title>main background</title><rect class="cls-1" x="-0.5" y="-0.5" width="1366" height="768"/><circle class="cls-2" cx="202.5" cy="197.5" r="12.5"/><ellipse class="cls-2" cx="376" cy="150.5" rx="16" ry="16.5"/><circle class="cls-2" cx="545.5" cy="229.5" r="11.5"/><circle class="cls-2" cx="269.5" cy="63.5" r="5.5"/><circle class="cls-2" cx="89" cy="127" r="7"/><circle class="cls-2" cx="106.5" cy="227.5" r="10.5"/><circle class="cls-2" cx="264.5" cy="251.5" r="10.5"/><circle class="cls-2" cx="589" cy="117" r="6"/><circle class="cls-2" cx="725.5" cy="279.5" r="11.5"/><circle class="cls-2" cx="712" cy="177" r="5"/><circle class="cls-2" cx="910.5" cy="163.5" r="13.5"/><circle class="cls-2" cx="1046.5" cy="115.5" r="4.5"/><ellipse class="cls-2" cx="1118.5" cy="216" rx="11.5" ry="12"/><ellipse class="cls-2" cx="1008.5" cy="184" rx="6.5" ry="7"/><circle class="cls-2" cx="789" cy="110" r="5"/><circle class="cls-2" cx="1185.5" cy="125.5" r="8.5"/><ellipse class="cls-2" cx="1205" cy="283.5" rx="11" ry="11.5"/><ellipse class="cls-2" cx="1303.5" cy="311" rx="15.5" ry="16"/><circle class="cls-2" cx="1285.5" cy="125.5" r="8.5"/><ellipse class="cls-2" cx="622" cy="324.5" rx="6" ry="6.5"/><circle class="cls-2" cx="248" cy="337" r="6"/><circle class="cls-2" cx="488" cy="303" r="8"/><ellipse class="cls-2" cx="735.5" cy="373" rx="6.5" ry="7"/><circle class="cls-2" cx="1138" cy="358" r="8"/><circle class="cls-2" cx="1256" cy="371" r="8"/></svg>