<svg id="Layer_1" data-name="Layer 1" xmlns="http://www.w3.org/2000/svg" xmlns:xlink="http://www.w3.org/1999/xlink" viewBox="0 0 1366 768"><defs><style>.cls-1{fill:url(#linear-gradient);}.cls-2{fill:#347374;}.cls-3{fill:#439496;}.cls-4{fill:#d1f1f7;}.cls-5{fill:#e6f9ff;}.cls-6{fill:#e4fcfb;}.cls-7{fill:#3d5357;}.cls-8{fill:#fcfcfc;}</style><linearGradient id="linear-gradient" x1="683" x2="683" y2="675" gradientUnits="userSpaceOnUse"><stop offset="0" stop-color="#fff"/><stop offset="0.31" stop-color="#fdfeff"/><stop offset="0.42" stop-color="#f6fbfd"/><stop offset="0.5" stop-color="#ebf6fa"/><stop offset="0.57" stop-color="#daeef6"/><stop offset="0.62" stop-color="#c4e4f0"/><stop offset="0.67" stop-color="#a9d8ea"/><stop offset="0.68" stop-color="#a3d5e8"/><stop offset="0.89" stop-color="#a3d5e8"/><stop offset="0.99" stop-color="#a3d5e8"/></linearGradient></defs><title>speaker new</title><rect class="cls-1" width="1366" height="675"/><path class="cls-2" d="M243.89,251.18q-3.49,15.49-7,31h4l-10,25,6,1-12,27h7l-14,30,7-1-14,30,8-1-16,32h10l-15,31,8-1-18,33,10-1-18,33,11,3-11,20c4.67,24.29,21.2,41.87,40,44,10.86,1.23,19.94-3,25-6Q244.4,416.18,243.89,251.18Z"/><path class="cls-3" d="M243.89,251.18q.5,146.51,1,293c-1.38,28.05,18,48.75,37,49s31.44-20.06,32-21l-7.5-15.5,8-1-15-32,9,1-17-35,9,2q-8.5-18.49-17-37l8,1-13-30,8,1-16-33,9,2q-8-16-16-32l7,1q-6.5-14.51-13-29h8l-14-29,7,1-11-23,6-1Q248.64,267.44,243.89,251.18Z"/><path class="cls-4" d="M140.89,550.18c.36-2.45,2.87-17.65,17-27a39.57,39.57,0,0,1,27-6,47.44,47.44,0,0,1,17-27c1.28-1,16.77-12.58,36-9,19.91,3.71,36.1,22.26,39,46a29.5,29.5,0,0,1,14,2c15.24,6.33,24.27,26.67,23,51a139.76,139.76,0,0,1-49,15C199.69,602.36,151.08,559.56,140.89,550.18Z"/><path class="cls-5" d="M.77,581.4a208.07,208.07,0,0,1,42.94-25.1,212.74,212.74,0,0,1,81-17.2c29.31-.35,43.31,5.76,93.05,18.78,18.33,4.79,66.64,17.43,99,22.76,101.1,16.61,194.74-13.75,225-23.54,46.41-15.05,58.61-26.14,97.93-29.24,34.65-2.73,52.39,3.73,105,8.75a902.76,902.76,0,0,0,107,3.74c-3.52-3.68-12.54-14.12-13.07-29-.78-21.7,17-40.46,36.89-46.09,18.62-5.28,39.14,1,53,15.87-1.59-6.84-3.19-18.77,1.92-31,10.36-24.81,43.89-40.2,72.93-30.18,25,8.63,41.8,34.39,40.15,62.91a74.55,74.55,0,0,1-9.91,37,73.36,73.36,0,0,1-16,19c25.1,12,62.15,24.8,105,19.74,40.33-4.75,43.54-15.19,80-22.19,60.68-11.67,120.14,43.6,133.13,55.68a208.81,208.81,0,0,1,30.09,34.93l1.26,110c-255.61,44.69-453.27,30.26-586,9.07-178.14-28.44-333.67-84.14-567-55A1133,1133,0,0,0,.16,739.4Q.46,660.41.77,581.4Z"/><path class="cls-6" d="M53.82,324.38c-33.18-2-53.21,22.6-54.93,24.8L3,529.63c8.44,1.48,22.58,2.57,37.73-3.41a64.71,64.71,0,0,0,9.79-4.88c3.1,1.32,7.76,3.34,13.39,5.92,6.79,3.12,10,4.77,11.75,5.57,14.71,6.73,32.45,2.15,35.27,1.39a64.15,64.15,0,0,0,29.38-18.1c15-16,18.14-35,18.94-41.76.62-5.25,3.74-31.68-13.71-53.59a62.07,62.07,0,0,0-31.35-20.88c.71-6.37,2.08-25.68-9.14-44.54C103.34,352.43,86.49,326.37,53.82,324.38Z"/><path class="cls-7" d="M116.82,502.08a37.24,37.24,0,0,1-20.59-1.37,48,48,0,0,0,10.29-13c8.22-15.2,6-30.81,5.15-36.23a63.91,63.91,0,0,0-3.21-12.3c1,3.52,7,25-4.51,45.11-8.8,15.46-23,21.56-27,23.24A53.06,53.06,0,0,1,64.69,511V493.88a65.13,65.13,0,0,0,8.37-19.82,67.08,67.08,0,0,0,1.29-23.92A59.45,59.45,0,0,0,84,442.62c2.42-2.32,10.1-9.82,14.16-20.5,6.48-17,.75-34.24,0-34.18s4.17,18.13-3.86,35.54c-4.89,10.59-13,17.44-20,21.87q-2.89-8.88-5.8-17.77a71.79,71.79,0,0,1,1.29,22.56c-.57,5.52-2,18.37-10.94,30.75a54.58,54.58,0,0,1-14.16,13.67,44.63,44.63,0,0,1-17.38-13A50,50,0,0,1,17,457.26,54,54,0,0,1,16.42,446a39.88,39.88,0,0,0,0,23.23,42.49,42.49,0,0,1-15.3.12,18.49,18.49,0,0,1-.84,4.75A37.87,37.87,0,0,0,18,474.4c1.06,2.3,2.24,4.7,3.54,7.18s2.58,4.7,3.86,6.83a36.73,36.73,0,0,1-14.15,1.37,37.21,37.21,0,0,1-10.42-2.7,19,19,0,0,1-.61,2.47,44.28,44.28,0,0,0,11,5,42.49,42.49,0,0,0,20.59.68L35.73,500l6.76,5.12q-.48,21.71-1,43.4c1.16,7.06,6.65,11.87,12.23,11.62,6.11-.27,9.47-6.47,9.66-6.83V517.11a66.51,66.51,0,0,0,14.8-4.78,68.9,68.9,0,0,0,13.51-8.2,38,38,0,0,0,15.45,3.42,39.45,39.45,0,0,0,21.88-6.84c13.43-9.12,17.2-23.79,18-27.34C146.17,475.73,137.49,497.39,116.82,502.08Z"/><ellipse class="cls-8" cx="26.18" cy="383.97" rx="3.86" ry="3.98"/></svg>