<svg id="Layer_1" data-name="Layer 1" xmlns="http://www.w3.org/2000/svg" viewBox="0 0 1366 768"><defs><style>.cls-1{fill:#e4fcfb;}.cls-2{fill:#3d5357;}</style></defs><title>tree</title><path class="cls-1" d="M291,247.08c-8.77-.37-35-.23-59.91,17.85-44,31.89-42.83,89.66-42.66,94.52a113.06,113.06,0,0,0-33.51,21c-7.36,6.68-34.27,31.87-37.57,73.51a108.36,108.36,0,0,0,10.15,54.61c3.3,6.94,15.49,31.78,42.66,46.21,40.62,21.59,84.12,3.63,100.53-3.15a145.21,145.21,0,0,0,15.23-7.35c4.82,2,12.06,5,20.82,8.93,10.56,4.7,15.58,7.2,18.28,8.4,22.87,10.16,50.45,3.25,54.84,2.1a100.45,100.45,0,0,0,45.7-27.31c23.3-24.13,28.21-52.82,29.45-63,1-7.93,5.81-47.8-21.33-80.87A96.85,96.85,0,0,0,384.92,361c1.11-9.62,3.23-38.76-14.22-67.22C343.92,250.15,295.08,247.25,291,247.08Z"/><path class="cls-2" d="M165.78,418.28c-1.87.64-1,19,10,34a54.66,54.66,0,0,0,25,18.57,60,60,0,0,0,34.52,2.58c1.65,3.47,3.48,7.09,5.51,10.82s4,7.11,6,10.32a58.69,58.69,0,0,1-22,2.06c-17.3-1.75-28.55-11.15-29-10.31s11.31,12.5,29,17.53a68.32,68.32,0,0,0,32,1l6,7.22,10.51,7.73q-.76,32.75-1.51,65.49c1.8,10.65,10.34,17.91,19,17.53,9.49-.41,14.72-9.76,15-10.31V537.91a105.76,105.76,0,0,0,23-7.22,107.76,107.76,0,0,0,21-12.37,60.65,60.65,0,0,0,24,5.15,62.77,62.77,0,0,0,34-10.31c20.88-13.77,26.75-35.9,28-41.25-1.4,3.55-14.9,36.24-47,43.31a59.75,59.75,0,0,1-32-2.06,73,73,0,0,0,16-19.59c12.78-22.94,9.32-46.49,8-54.66a92.64,92.64,0,0,0-5-18.56c1.61,5.31,10.83,37.66-7,68.06-13.69,23.33-35.71,32.53-42,35.06a84.76,84.76,0,0,1-19,5.16V502.85a96.53,96.53,0,0,0,13-29.91,98.14,98.14,0,0,0,2-36.09,92.91,92.91,0,0,0,15-11.35c3.77-3.5,15.7-14.81,22-30.94,10.07-25.71,1.16-51.65,0-51.56s6.48,27.34-6,53.63c-7.59,16-20.13,26.31-31,33q-4.52-13.41-9-26.82a105.07,105.07,0,0,1,2,34c-.88,8.33-3.19,27.72-17,46.4a84.08,84.08,0,0,1-22,20.63,69.25,69.25,0,0,1-27-19.6c-12.52-14.89-15.27-30.93-16.18-36.68a79,79,0,0,1-.84-16.94,58.66,58.66,0,0,0-2.5,12.89,59.38,59.38,0,0,0,2.5,22.17c-10.44,1.77-26.36,2.67-40-6.19C171.94,446,168.14,417.48,165.78,418.28Z"/></svg>